{"title":"Uu Kodathara Ulikki Padathara -  Team-CC.Com Exclusive","uid":7500468,"size":1145019699,"categoryP":"video","categoryS":"movies","magnet":"?xt=urn:btih:48cbe7f073ae0b9e3f4a3ccbe7af716f63c87dc3&amp;dn=Uu+Kodathara+Ulikki+Padathara+-++Team-CC.Com+Exclusive&amp;tr=udp%3A%2F%2Ftracker.openbittorrent.com%3A80&amp;tr=udp%3A%2F%2Fopen.demonii.com%3A1337&amp;tr=udp%3A%2F%2Ftracker.coppersurfer.tk%3A6969&amp;tr=udp%3A%2F%2Fexodus.desync.com%3A6969","seeders":0,"leechers":1,"uploader":"TeamCC","files":8,"time":1344006720,"description":"Visit http://team-cc.com/For More Exclusive Releases\n\n[code]General\nComplete name                    : C:UsersNaniDocumentsiWisoft Free Video ConverterUu Kodathara Ulikki Padathara -  Team-CC.Com ExclusiveUu Kodathara Ulikki Padathara -  Team-CC.Com Exclusive.avi\nFormat                           : AVI\nFormat/Info                      : Audio Video Interleave\nFormat profile                   : OpenDML\nFile size                        : 1.07 GiB\nDuration                         : 2h 13mn\nOverall bit rate                 : 1 145 Kbps\nWriting application              : Lavf52.31.0\n\nVideo\nID                               : 0\nFormat                           : MPEG-4 Visual\nFormat profile                   : Simple@L3\nFormat settings, BVOP            : No\nFormat settings, QPel            : No\nFormat settings, GMC             : No warppoints\nFormat settings, Matrix          : Default (H.263)\nCodec ID                         : XVID\nCodec ID/Hint                    : XviD\nDuration                         : 2h 13mn\nBit rate                         : 84.8 Kbps\nWidth                            : 608 pixels\nHeight                           : 272 pixels\nDisplay aspect ratio             : 2.25:1\nFrame rate                       : 29.970 fps\nColor space                      : YUV\nChroma subsampling               : 4:2:0\nBit depth                        : 8 bits\nScan type                        : Progressive\nCompression mode                 : Lossy\nBits/(Pixel*Frame)               : 0.017\nStream size                      : 80.8 MiB (7%)\nWriting library                  : XviD 1.2.1 (UTC 2008-12-04)\n\nAudio\nID                               : 1\nFormat                           : MPEG Audio\nFormat version                   : Version 1\nFormat profile                   : Layer 3\nMode                             : Joint stereo\nMode extension                   : MS Stereo\nCodec ID                         : 55\nCodec ID/Hint                    : MP3\nDuration                         : 2h 13mn\nBit rate mode                    : Constant\nBit rate                         : 128 Kbps\nChannel(s)                       : 2 channels\nSampling rate                    : 44.1 KHz\nCompression mode                 : Lossy\nStream size                      : 6.20 MiB (1%)\nAlignment                        : Aligned on interleaves\nInterleave, duration             : 44 ms (1.31 video frame)\n[/code]\n\nVisit http://team-cc.com/For More Exclusive Releases\n &lt;a href=&quot;\nhttp://i.imgur.com/krKBT.png&quot; rel=&quot;nofollow&quot; target=&quot;_NEW&quot;&gt;\nhttp://i.imgur.com/krKBT.png&lt;/a&gt; &lt;a href=&quot;\nhttp://i.imgur.com/tlsRo.png&quot; rel=&quot;nofollow&quot; target=&quot;_NEW&quot;&gt;\nhttp://i.imgur.com/tlsRo.png&lt;/a&gt; &lt;a href=&quot;\nhttp://i.imgur.com/Up9ft.png&quot; rel=&quot;nofollow&quot; target=&quot;_NEW&quot;&gt;\nhttp://i.imgur.com/Up9ft.png&lt;/a&gt; &lt;a href=&quot;\nhttp://i.imgur.com/wv5N8.png&quot; rel=&quot;nofollow&quot; target=&quot;_NEW&quot;&gt;\nhttp://i.imgur.com/wv5N8.png&lt;/a&gt; &lt;a href=&quot;\nhttp://i.imgur.com/hgdrU.png&quot; rel=&quot;nofollow&quot; target=&quot;_NEW&quot;&gt;\nhttp://i.imgur.com/hgdrU.png&lt;/a&gt; &lt;a href=&quot;\nhttp://i.imgur.com/BmN0I.png&quot; rel=&quot;nofollow&quot; target=&quot;_NEW&quot;&gt;\nhttp://i.imgur.com/BmN0I.png&lt;/a&gt;\n\nVisit http://team-cc.com/For More Exclusive Releases","torrent":{"xt":"urn:btih:48cbe7f073ae0b9e3f4a3ccbe7af716f63c87dc3","amp;dn":"Uu+Kodathara+Ulikki+Padathara+-++Team-CC.Com+Exclusive","amp;tr":["udp%3A%2F%2Ftracker.openbittorrent.com%3A80","udp%3A%2F%2Fopen.demonii.com%3A1337","udp%3A%2F%2Ftracker.coppersurfer.tk%3A6969","udp%3A%2F%2Fexodus.desync.com%3A6969"],"infoHash":"48cbe7f073ae0b9e3f4a3ccbe7af716f63c87dc3","infoHashBuffer":{"type":"Buffer","data":[72,203,231,240,115,174,11,158,63,74,60,203,231,175,113,111,99,200,125,195]},"announce":[],"urlList":[]}}